<svg overflow="visible" viewBox="0 0 25.6 25.6" xmlns="http://www.w3.org/2000/svg" fill-rule="evenodd" stroke-width=".50099999" stroke-linejoin="bevel"><path d="M18.613-.813v-15.508h-2.811a.625.625 0 0 1-.625-.624v-4.644c0-.411.312-.616.625-.618l2.813-.002v-2.499c0-1.317.015-3.687 1.249-5.198 1.245-1.54 2.97-2.572 5.82-2.572 4.39 0 6.281.586 6.35.608a.628.628 0 0 1 .426.706l-.86 4.755a.627.627 0 0 1-.777.494c.005 0-1.36-.367-2.608-.367-.76 0-1.912.163-1.912 1.07v2.998h4.858c.365 0 .65.314.621.677l-.38 4.643a.623.623 0 0 1-.62.573h-4.479V-.813a.626.626 0 0 1-.624.625h-6.442a.625.625 0 0 1-.624-.625zm6.441-.625v-15.507c0-.344.28-.625.625-.625h4.526l.278-3.394h-4.804a.625.625 0 0 1-.625-.625v-3.623c0-.872.442-1.492 1.081-1.858.601-.343 1.359-.462 2.08-.462.713 0 1.444.104 1.998.205l.272.054.638-3.53-.2-.039c-.875-.163-2.567-.387-5.24-.387-2.47 0-3.84.862-4.852 2.111-.904 1.108-.967 2.988-.967 4.41v3.124a.626.626 0 0 1-.625.625h-2.813v3.389h2.811c.343 0 .625.281.625.625v15.507h5.192z" transform="matrix(.6405 0 0 .64032 0 25.6)" fill="#ffffff" fill-opacity="1" fill-rule="evenodd" stroke="none" class="fill-000000"></path><path d="M0-3.652v-32.676a3.654 3.654 0 0 1 3.65-3.652h32.668a3.655 3.655 0 0 1 3.65 3.652v32.676A3.654 3.654 0 0 1 36.319 0H3.65A3.652 3.652 0 0 1 0-3.652zm38.72 0v-32.676a2.407 2.407 0 0 0-2.402-2.403H3.65a2.406 2.406 0 0 0-2.401 2.403v32.676A2.405 2.405 0 0 0 3.65-1.25h32.668a2.406 2.406 0 0 0 2.402-2.402z" transform="matrix(.6405 0 0 .64032 0 25.6)" fill="#ffffff" fill-opacity="1" fill-rule="evenodd" stroke="none" class="fill-000000"></path></svg>