<svg overflow="visible" viewBox="0 0 25.6 25.6" xmlns="http://www.w3.org/2000/svg" fill-rule="evenodd" stroke-width=".50099999" stroke-linejoin="bevel"><path d="M0-3.652v-32.676a3.654 3.654 0 0 1 3.65-3.652h32.668a3.655 3.655 0 0 1 3.65 3.652v32.676A3.654 3.654 0 0 1 36.319 0H3.65A3.652 3.652 0 0 1 0-3.652zm38.72 0v-32.676a2.407 2.407 0 0 0-2.402-2.403H3.65a2.406 2.406 0 0 0-2.401 2.403v32.676A2.405 2.405 0 0 0 3.65-1.25h32.668a2.406 2.406 0 0 0 2.402-2.402z" transform="matrix(.6405 0 0 .64032 0 25.6)" fill="#ffffff" fill-opacity="1" fill-rule="evenodd" stroke="none" class="fill-000000"></path><path d="M6.246-11.06v-17.864a4.818 4.818 0 0 1 4.815-4.817h17.863a4.819 4.819 0 0 1 4.815 4.817v17.865a4.818 4.818 0 0 1-4.815 4.816H11.061a4.817 4.817 0 0 1-4.815-4.816zm26.244 0v-17.864c0-1.966-1.6-3.567-3.566-3.567H11.061a3.59 3.59 0 0 0-.233.008h.414v7.496h-1.25l-.002-7.34a3.571 3.571 0 0 0-2.495 3.403v3.938h24.978v1.248H7.495v12.679a3.57 3.57 0 0 0 3.566 3.567h17.863a3.57 3.57 0 0 0 3.566-3.567zm-18.755-5.177a6.253 6.253 0 0 1 6.25-6.25c3.447 0 6.25 2.8 6.25 6.25s-2.803 6.249-6.25 6.249a6.252 6.252 0 0 1-6.25-6.25zm11.25 0c0-2.758-2.24-5-5-5-2.761 0-5 2.242-5 5 0 2.759 2.239 5 5 5 2.76 0 5-2.241 5-5zm-8.737-.007a3.741 3.741 0 0 1 3.737-3.74 3.741 3.741 0 0 1 0 7.48 3.74 3.74 0 0 1-3.737-3.74zm6.225 0a2.492 2.492 0 0 0-2.488-2.49 2.491 2.491 0 0 0 0 4.98 2.491 2.491 0 0 0 2.488-2.49zm-9.982-8.743v-7.496h1.25v7.496h-1.25zm2.497 0v-7.496h1.25v7.496h-1.25zm10-3.746c0-1.376 1.109-2.507 2.488-2.507 1.377 0 2.487 1.131 2.487 2.507 0 1.378-1.11 2.508-2.487 2.508-1.38 0-2.488-1.13-2.488-2.508zm3.727 0c0-.698-.563-1.258-1.24-1.258a1.25 1.25 0 0 0-1.238 1.258c0 .7.56 1.258 1.239 1.258a1.25 1.25 0 0 0 1.239-1.258z" transform="matrix(.6405 0 0 .64032 0 25.6)" fill="#ffffff" fill-opacity="1" fill-rule="evenodd" stroke="none" class="fill-000000"></path></svg>