<svg overflow="visible" viewBox="0 0 25.6 25.6" xmlns="http://www.w3.org/2000/svg" fill-rule="evenodd" stroke-width=".50099999" stroke-linejoin="bevel"><path d="m26.386-10.883-2.484-3.142a1.72 1.72 0 0 0-.328-.32l-.087-.05-.036.085-.567 2.53-.095.522c-.16.54-.51 1.092-1.222 1.23L21.13-10h-2.872c-5.11 0-9.722-7.279-12.951-16.347l-.024-.085c-.11-.545-.165-1.15.102-1.636.306-.561.892-.741 1.507-.76l4.415.03c.273.002.514.18.592.442.993 3.264 2.212 5.258 3.702 7.532l.042.073c.162.34.5.244.674-.026l.107-.315.002-5.123c0-.753-.343-.86-1.176-.978a.625.625 0 0 1-.506-.807c.401-1.273 1.718-1.924 3.545-1.924l1.684-.04c1.362 0 2.596.585 2.596 2.327v6.74l.12.066c.223.079.661.095 1.016-.461 1.53-2.16 3.294-4.738 3.542-6.086a.636.636 0 0 1 .05-.157c.311-.655 1.162-1.116 1.505-1.221a.871.871 0 0 1 .258-.043l4.598.003.285.003c.108.014.215.037.318.074.276.1.471.281.6.488.25.41.216.87.24 1.053.01.061.01.125 0 .188-.43 2.699-3.533 5.724-4.837 7.687-.335.462-.34.806-.028 1.185l4.328 5.42c.5.714.473 1.495-.058 2.054-.347.364-.85.568-1.38.63l-.5.014h-4.6l.082-.005c-.605.08-1.074-.17-1.427-.524l-.294-.354zm1.64-.366 4.629.001c.487.029.816-.121.945-.258.045-.046.107-.121.047-.283l-.1-.182-4.283-5.36c-.734-.894-.614-1.872-.028-2.683 1.24-1.868 3.905-4.537 4.533-6.74l.085-.376-.022-.238-.033-.182H29.14l-.147.07c-.14.078-.313.2-.437.317l-.125.155-.154.554c-.533 1.492-1.867 3.482-3.005 5.105l-.548.773-.346.427c-.92.894-2.278.731-2.833-.015a1.108 1.108 0 0 1-.226-.663v-6.81c0-.806-.366-1.077-1.332-1.077l-1.684.04c-.81 0-1.364.138-1.733.338l-.205.133.145.052c.616.275 1.164.811 1.164 1.937l-.005 5.203c-.12 1.625-2.105 2.34-2.993 1.078l-.12-.206c-1.325-2.021-2.483-3.89-3.45-6.625l-.258-.788-3.945-.025c-.407.01-.43.12-.423.109-.027.046-.059.173-.029.455l.049.294.616 1.663c3.225 8.354 7.309 13.807 11.14 13.807l2.9.001c.393.02.478-.418.498-.714l.015-.09.576-2.581.017-.063c.08-.239.203-.47.393-.65.258-.245.592-.355.945-.308.493.065.925.416 1.276.844l2.51 3.18c.258.37.428.404.556.387l.083-.006z" transform="matrix(.6405 0 0 .64032 0 25.6)" fill="#ffffff" fill-opacity="1" fill-rule="evenodd" stroke="none" class="fill-000000"></path><path d="M0-3.652v-32.676a3.654 3.654 0 0 1 3.65-3.652h32.668a3.655 3.655 0 0 1 3.65 3.652v32.676A3.654 3.654 0 0 1 36.319 0H3.65A3.652 3.652 0 0 1 0-3.652zm38.72 0v-32.676a2.407 2.407 0 0 0-2.402-2.403H3.65a2.406 2.406 0 0 0-2.401 2.403v32.676A2.405 2.405 0 0 0 3.65-1.25h32.668a2.406 2.406 0 0 0 2.402-2.402z" transform="matrix(.6405 0 0 .64032 0 25.6)" fill="#ffffff" fill-opacity="1" fill-rule="evenodd" stroke="none" class="fill-000000"></path></svg>